<?xml version="1.0" standalone="yes"?>
<svg xmlns="http://www.w3.org/2000/svg" width="295" height="153">
<path style="fill:#fdfcfd; stroke:none;" d="M0 0L0 153L295 153L295 0L0 0z"/>
<path style="fill:#8c9ab0; stroke:none;" d="M156 28L158 30L156 28M154 29L152 34L154 29z"/>
<path style="fill:#0e0d0f; stroke:none;" d="M155 29L155 30L158 31L155 29z"/>
<path style="fill:#8c9ab0; stroke:none;" d="M152 30L153 31L152 30z"/>
<path style="fill:#544698; stroke:none;" d="M153 30L154 31L153 30z"/>
<path style="fill:#0e0d0f; stroke:none;" d="M154 30L155 31L154 30z"/>
<path style="fill:#544698; stroke:none;" d="M156 30L157 31L156 30M158 30L161 32L161 31L158 30z"/>
<path style="fill:#8c9ab0; stroke:none;" d="M159 30L160 31L159 30M150 31L151 32L150 31z"/>
<path style="fill:#544698; stroke:none;" d="M151 31L150 35L151 31z"/>
<path style="fill:#0e0d0f; stroke:none;" d="M152.667 31.3333L153.333 31.6667L152.667 31.3333z"/>
<path style="fill:#8c9ab0; stroke:none;" d="M157 31L158 32L157 31z"/>
<path style="fill:#0e0d0f; stroke:none;" d="M159 31L160 32L159 31z"/>
<path style="fill:#8c9ab0; stroke:none;" d="M161 31L162 32L161 31M121 33L121 34L126 33L121 33M148 32L149 33L148 32z"/>
<path style="fill:#544698; stroke:none;" d="M149 32L150 33L149 32z"/>
<path style="fill:#0e0d0f; stroke:none;" d="M110 51C125.326 45.6139 120.794 59.7489 117 69L127 59L129 59L136 71L137.028 45.2099L152 32C140.528 35.5605 117.817 41.906 110 51z"/>
<path style="fill:#8c9ab0; stroke:none;" d="M158 32L159 33L158 32z"/>
<path style="fill:#0e0d0f; stroke:none;" d="M160 32L174.972 45.1844L176 72L177 72L183 59L195 68C191.464 58.8336 187.593 45.9368 202 51C194.24 41.9483 171.481 35.3062 160 32z"/>
<path style="fill:#544698; stroke:none;" d="M162 32L163 33L162 32z"/>
<path style="fill:#8c9ab0; stroke:none;" d="M163 32L164 33L163 32M185 33L185 34L190 33L185 33z"/>
<path style="fill:#0e0d0f; stroke:none;" d="M122.444 34.0864C118.503 36.4812 122.776 42.7025 126.396 39.9529C129.531 37.5711 125.913 31.9792 122.444 34.0864z"/>
<path style="fill:#544698; stroke:none;" d="M126 33L127 34L126 33M147 33L148 34L147 33z"/>
<path style="fill:#8c9ab0; stroke:none;" d="M159.667 33.3333L160.333 33.6667L159.667 33.3333z"/>
<path style="fill:#544698; stroke:none;" d="M164 33L165 34L164 33z"/>
<path style="fill:#8c9ab0; stroke:none;" d="M165 33L166 34L165 33z"/>
<path style="fill:#0e0d0f; stroke:none;" d="M186.318 34.0864C182.56 36.2561 185.924 42.0833 189.682 39.9136C193.44 37.7439 190.076 31.9167 186.318 34.0864z"/>
<path style="fill:#544698; stroke:none;" d="M190 33L191 34L190 33M120.333 34.6667L120.667 35.3333L120.333 34.6667M127 34L128 35L127 34z"/>
<path style="fill:#8c9ab0; stroke:none;" d="M144 34L145 35L144 34z"/>
<path style="fill:#544698; stroke:none;" d="M145.667 34.3333L146.333 34.6667L145.667 34.3333z"/>
<path style="fill:#8c9ab0; stroke:none;" d="M161 34L162 35L161 34z"/>
<path style="fill:#544698; stroke:none;" d="M166 34L167 35L166 34z"/>
<path style="fill:#8c9ab0; stroke:none;" d="M167 34L168 35L167 34z"/>
<path style="fill:#544698; stroke:none;" d="M184 34L185 35L184 34M191 34L192 35L191 34z"/>
<path style="fill:#8c9ab0; stroke:none;" d="M128 35L129 36L128 35M142 35L143 36L142 35z"/>
<path style="fill:#544698; stroke:none;" d="M143 35L144 36L143 35z"/>
<path style="fill:#8c9ab0; stroke:none;" d="M149 35L150 36L149 35M162 35L164 37L162 35z"/>
<path style="fill:#544698; stroke:none;" d="M163 35L164 36L163 35M168 35L169 36L168 35z"/>
<path style="fill:#8c9ab0; stroke:none;" d="M169 35L170 36L169 35M183 35L183 39L184 39L183 35M192 35L192 38L193 38L192 35M119 36L120 40L121 40L119 36z"/>
<path style="fill:#544698; stroke:none;" d="M128 36L128 39L129 39L128 36z"/>
<path style="fill:#8c9ab0; stroke:none;" d="M140 36L141 37L140 36z"/>
<path style="fill:#544698; stroke:none;" d="M141 36L142 37L141 36M164 36L165 37L164 36z"/>
<path style="fill:#8c9ab0; stroke:none;" d="M171 36L172 37L171 36M138 37L139 38L138 37z"/>
<path style="fill:#544698; stroke:none;" d="M146 37L147 38L146 37z"/>
<path style="fill:#8c9ab0; stroke:none;" d="M165 37L166 38L165 37M173 37L174 38L173 37z"/>
<path style="fill:#544698; stroke:none;" d="M120 38L121 39L120 38M136 38L137 39L136 38M145 38L146 39L145 38z"/>
<path style="fill:#8c9ab0; stroke:none;" d="M166 38L168 40L166 38z"/>
<path style="fill:#544698; stroke:none;" d="M167 38L168 39L167 38z"/>
<path style="fill:#8c9ab0; stroke:none;" d="M133 39L134 40L133 39z"/>
<path style="fill:#544698; stroke:none;" d="M168 39L169 40L168 39z"/>
<path style="fill:#8c9ab0; stroke:none;" d="M178 39L179 40L178 39z"/>
<path style="fill:#544698; stroke:none;" d="M184 39L186 41L184 39M191 39L192 40L191 39z"/>
<path style="fill:#8c9ab0; stroke:none;" d="M121 40L122 41L121 40z"/>
<path style="fill:#544698; stroke:none;" d="M131 40L132 41L131 40M142 40L143 41L142 40M169 40L170 41L169 40M180 40L181 41L180 40z"/>
<path style="fill:#8c9ab0; stroke:none;" d="M184 40L183 42L184 40z"/>
<path style="fill:#544698; stroke:none;" d="M190 40L191 41L190 40M123.667 41.3333L124.333 41.6667L123.667 41.3333z"/>
<path style="fill:#8c9ab0; stroke:none;" d="M141 41L142 42L141 41M170 41L171 42L170 41z"/>
<path style="fill:#544698; stroke:none;" d="M171 41L172 42L171 41z"/>
<path style="fill:#fdfcfd; stroke:none;" d="M184 41L184 42L187 42L184 41z"/>
<path style="fill:#544698; stroke:none;" d="M187.667 41.3333L188.333 41.6667L187.667 41.3333z"/>
<path style="fill:#8c9ab0; stroke:none;" d="M125 42L126 43L125 42z"/>
<path style="fill:#544698; stroke:none;" d="M126 42L127 43L126 42M139 42L140 43L139 42M172 42L173 43L172 42M185 42L186 43L185 42z"/>
<path style="fill:#8c9ab0; stroke:none;" d="M186.667 42.3333L187.333 42.6667L186.667 42.3333M121.667 43.3333L122.333 43.6667L121.667 43.3333z"/>
<path style="fill:#544698; stroke:none;" d="M123 43L124 44L123 43M137 43L138 44L137 43z"/>
<path style="fill:#8c9ab0; stroke:none;" d="M138 43L139 44L138 43M173 43L174 44L173 43z"/>
<path style="fill:#544698; stroke:none;" d="M174 43L175 44L174 43z"/>
<path style="fill:#8c9ab0; stroke:none;" d="M188 43L188 44L191 44L188 43M119.667 44.3333L120.333 44.6667L119.667 44.3333M136 44L136 72L137 72L136 44M175 44L176 45L175 44M191 44L191 45L194 45L191 44M116.667 45.3333L117.333 45.6667L116.667 45.3333z"/>
<path style="fill:#544698; stroke:none;" d="M118 45L119 46L118 45z"/>
<path style="fill:#8c9ab0; stroke:none;" d="M194.667 45.3333L195.333 45.6667L194.667 45.3333z"/>
<path style="fill:#544698; stroke:none;" d="M46 46L37 54L37 55C47.2734 50.2182 45.7266 50.2182 56 55L56 54L46 46z"/>
<path style="fill:#8c9ab0; stroke:none;" d="M47 46L48 47L47 46z"/>
<path style="fill:#544698; stroke:none;" d="M114.667 46.3333L115.333 46.6667L114.667 46.3333M196 46L197 47L196 46z"/>
<path style="fill:#8c9ab0; stroke:none;" d="M197 46L198 47L197 46M44 47L45 48L44 47M48 47L49 48L48 47M112 47L113 48L112 47z"/>
<path style="fill:#544698; stroke:none;" d="M113 47L114 48L113 47M198 47L199 48L198 47z"/>
<path style="fill:#8c9ab0; stroke:none;" d="M199 47L200 48L199 47M43 48L44 49L43 48z"/>
<path style="fill:#d23c31; stroke:none;" d="M25 55C24.999 63.9302 22.6927 67.1486 16 73L16 74C23.0511 80.1063 25 82.6044 25 92L38 93.027L47 98.0787L56 92.6034L68 92C68.001 83.0698 70.3073 79.8514 77 74L77 73C69.9489 66.8937 68 64.3956 68 55L55 53.973L46 48.9213L37 54.3966L25 55z"/>
<path style="fill:#8c9ab0; stroke:none;" d="M49 48L50 49L49 48M111 48L112 49L111 48z"/>
<path style="fill:#544698; stroke:none;" d="M115 48L116 49L115 48z"/>
<path style="fill:#8c9ab0; stroke:none;" d="M116 48L116 49L119 49L116 48M193 48L193 49L197 49L193 48M200 48L201 49L200 48M42 49L43 50L42 49M50 49L51 50L50 49M110 49L111 50L110 49z"/>
<path style="fill:#544698; stroke:none;" d="M113 49L114 50L113 49z"/>
<path style="fill:#8c9ab0; stroke:none;" d="M114 49L115 50L114 49M119 49L120 50L119 49M197 49L198 50L197 49z"/>
<path style="fill:#544698; stroke:none;" d="M198 49L199 50L198 49z"/>
<path style="fill:#8c9ab0; stroke:none;" d="M201 49L202 50L201 49M41 50L42 51L41 50M51 50L52 51L51 50M109 50L110 51L109 50M120 50L120 59L121 59L120 50z"/>
<path style="fill:#544698; stroke:none;" d="M191 50L192 51L191 50z"/>
<path style="fill:#8c9ab0; stroke:none;" d="M199 50L200 51L199 50M202 50L203 51L202 50M40 51L41 52L40 51M52 51L53 52L52 51z"/>
<path style="fill:#544698; stroke:none;" d="M109.667 51.3333L110.333 51.6667L109.667 51.3333z"/>
<path style="fill:#8c9ab0; stroke:none;" d="M191 51L192 52L191 51z"/>
<path style="fill:#544698; stroke:none;" d="M201 51L204 53L201 51z"/>
<path style="fill:#8c9ab0; stroke:none;" d="M39 52L40 53L39 52M53 52L54 53L53 52M108.667 52.3333L109.333 52.6667L108.667 52.3333z"/>
<path style="fill:#544698; stroke:none;" d="M121 52L121 57L122 57L121 52z"/>
<path style="fill:#8c9ab0; stroke:none;" d="M38 53L39 54L38 53M54 53L55 54L54 53M23 54L23 60L24 60L23 54z"/>
<path style="fill:#544698; stroke:none;" d="M24 54C24 60.2802 24.3711 64.908 19 69L19 70C25.5393 66.8482 25 61.4555 25 55L32 55L24 54z"/>
<path style="fill:#8c9ab0; stroke:none;" d="M32 54L32 55L37 55L32 54M56 54L56 55L62 55L56 54z"/>
<path style="fill:#544698; stroke:none;" d="M62 54L62 55L68 55C68 64.1796 68.8466 67.9186 77 73L77 74L74 77L79 73C71.0215 67.2629 69 63.7073 69 54L62 54z"/>
<path style="fill:#8c9ab0; stroke:none;" d="M69 54L69 61L70 61L69 54M191 57L192 58L191 57z"/>
<path style="fill:#544698; stroke:none;" d="M191 58L192 59L191 58M120.333 59.6667L120.667 60.3333L120.333 59.6667M127.667 59.3333L128.333 59.6667L127.667 59.3333M183 59L183 60L186 61L183 59z"/>
<path style="fill:#8c9ab0; stroke:none;" d="M119.333 60.6667L119.667 61.3333L119.333 60.6667M127.667 60.3333L128.333 60.6667L127.667 60.3333M183 60L183 62L185 60L183 60M126 61L127 62L126 61z"/>
<path style="fill:#544698; stroke:none;" d="M129 61L130 62L129 61z"/>
<path style="fill:#8c9ab0; stroke:none;" d="M185 61L186 62L185 61M192 61L193 62L192 61z"/>
<path style="fill:#544698; stroke:none;" d="M119.333 62.6667L119.667 63.3333L119.333 62.6667z"/>
<path style="fill:#8c9ab0; stroke:none;" d="M125 62L126 63L125 62z"/>
<path style="fill:#544698; stroke:none;" d="M182 62L183 63L182 62z"/>
<path style="fill:#8c9ab0; stroke:none;" d="M186 62L187 63L186 62M124 63L125 64L124 63z"/>
<path style="fill:#544698; stroke:none;" d="M130 63L131 64L130 63z"/>
<path style="fill:#8c9ab0; stroke:none;" d="M182 63L183 64L182 63M187 63L188 64L187 63M118 64L119 65L118 64M123 64L124 65L123 64M181 64L182 65L181 64M188 64L189 65L188 64M193 64L194 65L193 64M23 65L24 66L23 65M69 65L70 66L69 65z"/>
<path style="fill:#544698; stroke:none;" d="M118 65L119 66L118 65M121 65L122 66L121 65z"/>
<path style="fill:#8c9ab0; stroke:none;" d="M122 65L123 66L122 65z"/>
<path style="fill:#544698; stroke:none;" d="M131 65L132 66L131 65M180 65L181 66L180 65z"/>
<path style="fill:#8c9ab0; stroke:none;" d="M22 66L23 67L22 66z"/>
<path style="fill:#fdfcfd; stroke:none;" d="M32 66L32 79L35 74L36 74L41 79L41 66L36 70L35 70L35 66L32 66M47 74L47 76L46 77L42 76C42.9451 80.4104 49.7778 79.6395 49.7778 75C49.7778 72.248 46.447 70.0548 45 68L49 69C47.4431 61.7345 36.2137 71.1298 47 74M52 66L52 79L55 74C64.1121 72.5115 58.7394 66.0798 52 66z"/>
<path style="fill:#8c9ab0; stroke:none;" d="M70 66L71 67L70 66M117 66L118 67L117 66z"/>
<path style="fill:#544698; stroke:none;" d="M120 66L121 67L120 66z"/>
<path style="fill:#8c9ab0; stroke:none;" d="M180 66L181 67L180 66z"/>
<path style="fill:#544698; stroke:none;" d="M191 66L192 67L191 66M194 66L195 67L194 66z"/>
<path style="fill:#8c9ab0; stroke:none;" d="M21 67L22 68L21 67M71 67L72 68L71 67z"/>
<path style="fill:#544698; stroke:none;" d="M117 67L118 68L117 67M119 67L120 68L119 67z"/>
<path style="fill:#8c9ab0; stroke:none;" d="M132 67L133 68L132 67z"/>
<path style="fill:#544698; stroke:none;" d="M179 67L180 68L179 67z"/>
<path style="fill:#8c9ab0; stroke:none;" d="M192 67L193 68L192 67M20 68L21 69L20 68M47 68L48 69L47 68z"/>
<path style="fill:#d23c31; stroke:none;" d="M55 68L57 72L55 68z"/>
<path style="fill:#8c9ab0; stroke:none;" d="M56 68L57 69L56 68M60 68L61 69L60 68M72 68L73 69L72 68M116.333 68.6667L116.667 69.3333L116.333 68.6667M118 68L119 69L118 68M179 68L180 69L179 68z"/>
<path style="fill:#544698; stroke:none;" d="M194.667 68.3333L195.333 68.6667L194.667 68.3333z"/>
<path style="fill:#8c9ab0; stroke:none;" d="M57.3333 69.6667L57.6667 70.3333L57.3333 69.6667M74 69L75 70L74 69M133 69L134 70L133 69z"/>
<path style="fill:#544698; stroke:none;" d="M178 69L179 70L178 69z"/>
<path style="fill:#8c9ab0; stroke:none;" d="M195.667 69.3333L196.333 69.6667L195.667 69.3333M17 70L15 73L17 70z"/>
<path style="fill:#544698; stroke:none;" d="M18 70L19 71L18 70z"/>
<path style="fill:#8c9ab0; stroke:none;" d="M38 70L39 71L38 70M75 70L76 71L75 70M134 70L135 71L134 70z"/>
<path style="fill:#544698; stroke:none;" d="M17 71L18 72L17 71z"/>
<path style="fill:#8c9ab0; stroke:none;" d="M60 71L61 72L60 71M76 71L77 72L76 71z"/>
<path style="fill:#544698; stroke:none;" d="M135 71L136 72L135 71z"/>
<path style="fill:#8c9ab0; stroke:none;" d="M177 71L178 72L177 71z"/>
<path style="fill:#544698; stroke:none;" d="M16 72L17 73L16 72z"/>
<path style="fill:#8c9ab0; stroke:none;" d="M156 73L156 74L180 75C176.266 70.2601 161.858 73 156 73z"/>
<path style="fill:#544698; stroke:none;" d="M14 73L14 74C21.9785 79.7371 24 83.2927 24 93L31 93L31 92L25 92C25 82.3308 23.5275 77.2453 14 73z"/>
<path style="fill:#8c9ab0; stroke:none;" d="M38 73L39 74L38 73M132 75L152 74C147.604 72.1554 135.286 71.2396 132 75z"/>
<path style="fill:#544698; stroke:none;" d="M152 73L152 74L156 74L152 73z"/>
<path style="fill:#8c9ab0; stroke:none;" d="M35 74L36 75L35 74M46 74L47 75L46 74M55.6667 74.3333L56.3333 74.6667L55.6667 74.3333M77 74L78 75L77 74z"/>
<path style="fill:#544698; stroke:none;" d="M134 74L135 75L134 74z"/>
<path style="fill:#0e0d0f; stroke:none;" d="M135 74L135 75L177 75C166.012 70.3893 146.957 74 135 74z"/>
<path style="fill:#544698; stroke:none;" d="M177 74L178 75L177 74z"/>
<path style="fill:#8c9ab0; stroke:none;" d="M16 75L17 76L16 75M76 75L77 76L76 75M135 75L135 76L177 76C166.012 71.3893 146.957 75 135 75M17 76L18 77L17 76M40 76L42 78L42 76L40 76M44.6667 76.3333L45.3333 76.6667L44.6667 76.3333M75 76L76 77L75 76M18 77L19 78L18 77z"/>
<path style="fill:#544698; stroke:none;" d="M68 92L61 92L61 93L69 93C69 86.7198 68.6289 82.092 74 78C67.0412 77.8503 68 87.1456 68 92z"/>
<path style="fill:#8c9ab0; stroke:none;" d="M20 78L21 79L20 78M34 78L35 79L34 78M54 78L55 79L54 78M72 78L73 79L72 78M21 79L22 80L21 79M71 79L72 80L71 79M86 79L86 80L90 80L86 79M22 80L23 81L22 80M70 80L71 81L70 80z"/>
<path style="fill:#544698; stroke:none;" d="M79 99C81.112 105.162 90.8724 105.393 93.2384 98.9452C95.6473 92.3803 75.3561 81.1952 93 83C89.7823 78.4457 80.2963 79.2044 80.2963 86.0008C80.2963 89.3413 96.1701 101.861 83.044 100.338C81.7179 100.184 80.2291 99.4436 79 99z"/>
<path style="fill:#8c9ab0; stroke:none;" d="M91 80L92 81L91 80z"/>
<path style="fill:#544698; stroke:none;" d="M234 80L234 103L238 103C238.056 87.0191 244.091 101.873 251 103L245 92C258.744 84.7864 240.603 80 234 80z"/>
<path style="fill:#8c9ab0; stroke:none;" d="M245.667 80.3333L246.333 80.6667L245.667 80.3333M253 80L254 81L253 80z"/>
<path style="fill:#544698; stroke:none;" d="M253 81L253 82L260 83L260 103L264 103L264 83L271 83L271 80L253 81z"/>
<path style="fill:#8c9ab0; stroke:none;" d="M272 80C270.005 83.6081 267.911 83.808 264 83L265 104L260 103C267.804 113.784 267 88.6616 267 85L274 84L272 80M23 81L24 82L23 81M69 81L70 82L69 81M81 81L82 82L81 81M94 81L93 84L90 84L84 83L84 88L95 86L94 81z"/>
<path style="fill:#544698; stroke:none;" d="M99 81L99 103L103 103L103 81L99 81z"/>
<path style="fill:#8c9ab0; stroke:none;" d="M104 81L106 89L106 81L104 81M110 81L111 82L110 81z"/>
<path style="fill:#544698; stroke:none;" d="M116 103C110.79 91.9874 108.734 91.8893 115 81C101.957 83.0563 103.641 102.018 116 103z"/>
<path style="fill:#8c9ab0; stroke:none;" d="M113 83L114 85L108 90L108 91L109 93L114 97C111.481 90.2056 115.944 87.1992 118 81L113 83z"/>
<path style="fill:#544698; stroke:none;" d="M121 81L121 103L134 103L134 101L125 101C125.073 94.8174 126.557 92.2098 133 92L133 90L125 90L125 83L134 83L134 81L121 81z"/>
<path style="fill:#8c9ab0; stroke:none;" d="M135 81L126 84L126 89L127 89L127 85C131.346 84.9966 135.44 85.6998 137 81L135 81z"/>
<path style="fill:#544698; stroke:none;" d="M140 81L140 103L153 103L153 101L144 101C144.073 94.8174 145.557 92.2098 152 92L152 90L144 90L144 83L153 83L153 81L140 81z"/>
<path style="fill:#8c9ab0; stroke:none;" d="M153 81C152.495 84.867 148.234 84 145 84L144 90L145 90L146 85L156 85L156 81L153 81z"/>
<path style="fill:#544698; stroke:none;" d="M159 81L159 103L171 103L171 100L163 100L163 81L159 81z"/>
<path style="fill:#8c9ab0; stroke:none;" d="M164 81L164 99L166 99L164 81z"/>
<path style="fill:#544698; stroke:none;" d="M176 81L176 103L179 103L179 83L187 103C195.763 101.57 194.776 88.8049 200 83L200 103L203 103L203 81C193.767 81.11 192.914 89.4874 190 97C185.755 89.5336 186.143 81.1201 176 81z"/>
<path style="fill:#8c9ab0; stroke:none;" d="M184 81L185 84L186 84L184 81M204 81L204 104L200 103C200.614 105.864 204.173 107.464 205.667 103.889C207.551 99.3803 207.266 84.2662 204 81M215 81L216 82L215 81z"/>
<path style="fill:#544698; stroke:none;" d="M208 103L212 103C214.097 97.2967 218.661 98.0006 224 98C224.728 101.351 225.597 102.412 229 103L222 81C212.067 81.326 210.584 95.058 208 103z"/>
<path style="fill:#8c9ab0; stroke:none;" d="M223 81L225 89L226 89L223 81M247 81L248 82L247 81M80 82L81 83L80 82z"/>
<path style="fill:#fdfcfd; stroke:none;" d="M86.6667 82.3333L87.3333 82.6667L86.6667 82.3333M153 82L154 83L153 82M184.333 82.6667L184.667 83.3333L184.333 82.6667z"/>
<path style="fill:#8c9ab0; stroke:none;" d="M195 82L196 83L195 82M250 82L249 88L245 92L245 93L249 95C251.454 90.5386 253.092 86.5271 250 82M253 82L254 83L253 82z"/>
<path style="fill:#fdfcfd; stroke:none;" d="M85 83L86 84L85 83M90 83L91 84L90 83M114 83L115 84L114 83M144 83L144 89L145 89L145 84L153 84L144 83z"/>
<path style="fill:#8c9ab0; stroke:none;" d="M179 83L176 106C186.063 105.216 182.201 89.2772 179 83z"/>
<path style="fill:#fdfcfd; stroke:none;" d="M180 83L181 89L182 89L180 83z"/>
<path style="fill:#8c9ab0; stroke:none;" d="M198 83L199 84L198 83M214.333 83.6667L214.667 84.3333L214.333 83.6667z"/>
<path style="fill:#fdfcfd; stroke:none;" d="M238 83L239 91C246.657 88.9505 245.744 83.2536 238 83M265 83L265 84L271 84L265 83M84 84L84 87L85 87L84 84M92 84L93 85L92 84z"/>
<path style="fill:#8c9ab0; stroke:none;" d="M108 84L109 85L108 84z"/>
<path style="fill:#fdfcfd; stroke:none;" d="M113 84L114 85L113 84z"/>
<path style="fill:#8c9ab0; stroke:none;" d="M217 84L218 88L216 87L216 88L217 90L217 91L215 90L215 91L218 94L217 84z"/>
<path style="fill:#fdfcfd; stroke:none;" d="M218.333 84.6667L218.667 85.3333L218.333 84.6667M223 84L223 87L224 87L223 84z"/>
<path style="fill:#8c9ab0; stroke:none;" d="M239 84L239 90L240 90L240 85L244 85L239 84z"/>
<path style="fill:#fdfcfd; stroke:none;" d="M250 84L250 88L251 88L250 84z"/>
<path style="fill:#8c9ab0; stroke:none;" d="M254 84L254 85L259 85L254 84z"/>
<path style="fill:#fdfcfd; stroke:none;" d="M264 84L263 104C266.76 100.714 265.845 88.3958 264 84z"/>
<path style="fill:#8c9ab0; stroke:none;" d="M79 85L80 86L79 85z"/>
<path style="fill:#fdfcfd; stroke:none;" d="M112 85L113 86L112 85z"/>
<path style="fill:#8c9ab0; stroke:none;" d="M186 85L190 96L191 96L186 85M194 85L195 86L194 85M23 86L23 93L24 93L23 86M197 86L198 89L196 88L197 91L196 94L194 94L193 97L194 100L193 102L188 106C195.666 105.408 201.586 92.2987 197 86M213.333 86.6667L213.667 87.3333L213.333 86.6667z"/>
<path style="fill:#fdfcfd; stroke:none;" d="M217.333 86.6667L217.667 87.3333L217.333 86.6667M219 86L218 94L216 92L215 92C215.796 95.7158 218.637 95 222 95L219 86z"/>
<path style="fill:#8c9ab0; stroke:none;" d="M69 87L69 93L70 93L69 87z"/>
<path style="fill:#fdfcfd; stroke:none;" d="M105 87L106 88L105 87M111 87L110 89L111 87M186 87L186 90L187 90L186 87z"/>
<path style="fill:#8c9ab0; stroke:none;" d="M193.333 87.6667L193.667 88.3333L193.333 87.6667z"/>
<path style="fill:#fdfcfd; stroke:none;" d="M197.333 87.6667L197.667 88.3333L197.333 87.6667M224.333 87.6667L224.667 88.3333L224.333 87.6667z"/>
<path style="fill:#8c9ab0; stroke:none;" d="M245.333 87.6667L245.667 88.3333L245.333 87.6667M85 88L86 89L85 88M87 89L88 90L87 89z"/>
<path style="fill:#fdfcfd; stroke:none;" d="M109 89L110 90L109 89z"/>
<path style="fill:#8c9ab0; stroke:none;" d="M212 89L213 90L212 89z"/>
<path style="fill:#fdfcfd; stroke:none;" d="M216.333 89.6667L216.667 90.3333L216.333 89.6667z"/>
<path style="fill:#8c9ab0; stroke:none;" d="M244 89L245 90L244 89z"/>
<path style="fill:#fdfcfd; stroke:none;" d="M249 89L250 90L249 89z"/>
<path style="fill:#8c9ab0; stroke:none;" d="M81 90L82 91L81 90M89.6667 90.3333L90.3333 90.6667L89.6667 90.3333M104 90L105 91L104 90M134 90L126 92L125 101L134 101L134 100L127 100L127 95C130.689 94.9563 135.592 94.859 134 90M153 90L145 92L144 101L153 101L153 100L146 100L146 95L155 94L153 90z"/>
<path style="fill:#fdfcfd; stroke:none;" d="M187 90L187 93L188 93L187 90z"/>
<path style="fill:#8c9ab0; stroke:none;" d="M192 90L193 91L192 90z"/>
<path style="fill:#fdfcfd; stroke:none;" d="M196 90L197 91L196 90z"/>
<path style="fill:#8c9ab0; stroke:none;" d="M226 90L228 97L229 97L226 90M238 90L239 91L238 90M241 90L242 91L241 90z"/>
<path style="fill:#fdfcfd; stroke:none;" d="M248 90L249 91L248 90z"/>
<path style="fill:#8c9ab0; stroke:none;" d="M82 91L83 92L82 91M91 91L92 92L91 91M103 91L104 92L103 91z"/>
<path style="fill:#fdfcfd; stroke:none;" d="M109 91L110 92L109 91M247 91L248 92L247 91z"/>
<path style="fill:#8c9ab0; stroke:none;" d="M31 92L31 93L37 93L31 92z"/>
<path style="fill:#544698; stroke:none;" d="M37 92L37 93L46 101L47 101L56 93L56 92C45.7266 96.7818 47.2734 96.7818 37 92z"/>
<path style="fill:#8c9ab0; stroke:none;" d="M56 92L56 93L61 93L56 92M84 92C84.3683 95.2225 85.9128 95.506 89 95L89 94L87 93L85 94L84 92M92 92L93 93L92 92z"/>
<path style="fill:#fdfcfd; stroke:none;" d="M103 92L102 104L106 95L103 92M127 92L127 93L133 93L127 92M146 92L146 93L152 93L146 92z"/>
<path style="fill:#8c9ab0; stroke:none;" d="M191.333 92.6667L191.667 93.3333L191.333 92.6667M211 92L212 93L211 92z"/>
<path style="fill:#fdfcfd; stroke:none;" d="M226 92L226 95L227 95L226 92M246 92L247 93L246 92z"/>
<path style="fill:#8c9ab0; stroke:none;" d="M38 93L39 94L38 93M54 93L55 94L54 93z"/>
<path style="fill:#fdfcfd; stroke:none;" d="M85 93L86 94L85 93z"/>
<path style="fill:#8c9ab0; stroke:none;" d="M94 93L93 99L88 103L83 103L82 103L80 104L80 105C87.5548 106.799 102.53 102.945 94 93M105 93L106 94L105 93z"/>
<path style="fill:#fdfcfd; stroke:none;" d="M110 93L111 94L110 93M125 93L125 100L126 100L125 93M144 93L144 100L145 100L144 93M188.333 93.6667L188.667 94.3333L188.333 93.6667M195 93L196 94L195 93z"/>
<path style="fill:#8c9ab0; stroke:none;" d="M214 93L215 94L214 93M239 93L239 104L234 103L240 106L243 95L239 93M39 94L40 95L39 94M53 94L54 95L53 94z"/>
<path style="fill:#fdfcfd; stroke:none;" d="M87 94L88 95L87 94M94 94L94 99L95 99L94 94z"/>
<path style="fill:#8c9ab0; stroke:none;" d="M104 94L104 104L99 103C104.492 110.589 107.691 98.8718 104 94z"/>
<path style="fill:#fdfcfd; stroke:none;" d="M111 94L112 95L111 94M238 94L237 104C239.789 101.563 239.361 97.2442 238 94M247 94L248 95L247 94z"/>
<path style="fill:#8c9ab0; stroke:none;" d="M40 95L41 96L40 95M52 95L53 96L52 95z"/>
<path style="fill:#fdfcfd; stroke:none;" d="M189.333 95.6667L189.667 96.3333L189.333 95.6667M194.333 95.6667L194.667 96.3333L194.333 95.6667z"/>
<path style="fill:#8c9ab0; stroke:none;" d="M210 95L211 96L210 95z"/>
<path style="fill:#fdfcfd; stroke:none;" d="M227.333 95.6667L227.667 96.3333L227.333 95.6667z"/>
<path style="fill:#8c9ab0; stroke:none;" d="M243 95L244 96L243 95M41 96L42 97L41 96M51 96L52 97L51 96M107 96L108 97L107 96z"/>
<path style="fill:#fdfcfd; stroke:none;" d="M112 96L113 97L112 96z"/>
<path style="fill:#8c9ab0; stroke:none;" d="M249 96L251 101L252 101L249 96M42 97L43 98L42 97M50 97L51 98L50 97z"/>
<path style="fill:#fdfcfd; stroke:none;" d="M249.333 97.6667L249.667 98.3333L249.333 97.6667z"/>
<path style="fill:#8c9ab0; stroke:none;" d="M43 98L44 99L43 98M49 98L50 99L49 98M89 98L90 99L89 98M113 98L113 99L116 100L113 98z"/>
<path style="fill:#fdfcfd; stroke:none;" d="M193.333 98.6667L193.667 99.3333L193.333 98.6667z"/>
<path style="fill:#8c9ab0; stroke:none;" d="M209 98L210 99L209 98M213 98L212 100L213 103L212 104L208 103C211.884 108.305 217.387 100.183 223 100L223 99L213 98M229 98L230 104L225 103C227.065 105.859 228.663 105.903 232 105L229 98M44 99L45 100L44 99M48 99L49 100L48 99M80 99L81 100L80 99M109 99L110 100L109 99z"/>
<path style="fill:#fdfcfd; stroke:none;" d="M114 99L115 100L114 99M213 99L214 100L213 99M250.333 99.6667L250.667 100.333L250.333 99.6667z"/>
<path style="fill:#8c9ab0; stroke:none;" d="M45 100L46 101L45 100M82.6667 100.333L83.3333 100.667L82.6667 100.333M87 100L88 101L87 100z"/>
<path style="fill:#fdfcfd; stroke:none;" d="M93 100L94 101L93 100z"/>
<path style="fill:#8c9ab0; stroke:none;" d="M186 100L187 101L186 100M208.333 100.667L208.667 101.333L208.333 100.667z"/>
<path style="fill:#fdfcfd; stroke:none;" d="M229 100L228 104L229 100M92 101L93 102L92 101z"/>
<path style="fill:#8c9ab0; stroke:none;" d="M116 101L117 104L112 103C113.92 105.957 115.696 105.883 119 105L116 101M135 101L134 104L121 103C123.995 107.152 139.514 107.619 135 101M140 103C143.58 107.963 154.863 107.811 156 101L140 103M171 101L172 104L159 103C162.238 107.49 168.954 106 174 106L174 101L171 101z"/>
<path style="fill:#fdfcfd; stroke:none;" d="M192 101L193 102L192 101z"/>
<path style="fill:#8c9ab0; stroke:none;" d="M80 102L81 103L80 102z"/>
<path style="fill:#fdfcfd; stroke:none;" d="M91 102L92 103L91 102M116.333 102.667L116.667 103.333L116.333 102.667M212 102L213 103L212 102z"/>
<path style="fill:#8c9ab0; stroke:none;" d="M252 102L247 103C249.065 105.859 250.663 105.903 254 105L252 102z"/>
<path style="fill:#fdfcfd; stroke:none;" d="M89.6667 103.333L90.3333 103.667L89.6667 103.333M153 103L154 104L153 103M168 103L168 104L172 104L168 103M179 103L180 104L179 103M191 103L192 104L191 103M211 103L212 104L211 103M83 104L83 105L88 105L83 104z"/>
<path style="fill:#8c9ab0; stroke:none;" d="M216 110L216 111L219 111L216 110z"/>
<path style="fill:#544698; stroke:none;" d="M218.667 109.333L219.333 109.667L218.667 109.333M223 119L224 119L227 110C222.462 109.893 223.012 115.582 223 119z"/>
<path style="fill:#8c9ab0; stroke:none;" d="M227 109L228 110L227 109z"/>
<path style="fill:#544698; stroke:none;" d="M217 110L218 111L217 110z"/>
<path style="fill:#8c9ab0; stroke:none;" d="M225 110L226 111L225 110z"/>
<path style="fill:#544698; stroke:none;" d="M109 111L108 119L109 119L109 111z"/>
<path style="fill:#8c9ab0; stroke:none;" d="M110 111L111 112L110 111M198 111L198 112L201 112L201 111L198 111z"/>
<path style="fill:#544698; stroke:none;" d="M199 111L200 112L199 111M216 111L212 119L222 118L220 116L222 114L221 113L216 117L216 111z"/>
<path style="fill:#8c9ab0; stroke:none;" d="M227 111L227 114L228 114L227 111z"/>
<path style="fill:#544698; stroke:none;" d="M228 111L229 112L228 111M104 112L104 116L105 116L104 112z"/>
<path style="fill:#8c9ab0; stroke:none;" d="M155 112L156 113L155 112z"/>
<path style="fill:#544698; stroke:none;" d="M156 112L155 115L156 112z"/>
<path style="fill:#8c9ab0; stroke:none;" d="M166 113L166 114L168 115L171 114L166 113z"/>
<path style="fill:#544698; stroke:none;" d="M198 112L194 116L193 113L188 113L187 114L187 119L188 119L193 115L193 119L198 115L197 119L204 118L201 117L203 114L200 117L199 117L198 112z"/>
<path style="fill:#8c9ab0; stroke:none;" d="M215 112L216 113L215 112M224.333 112.667L224.667 113.333L224.333 112.667z"/>
<path style="fill:#544698; stroke:none;" d="M227 112L228 113L227 112z"/>
<path style="fill:#8c9ab0; stroke:none;" d="M73 116L74 116L73 114L74 114L79 118L76 113L73 116z"/>
<path style="fill:#544698; stroke:none;" d="M77 116L79 118L80 118L81 115L82 115L82 119L83 119L84 115L85 115L87 119L86 113L77 116z"/>
<path style="fill:#8c9ab0; stroke:none;" d="M83.6667 113.333L84.3333 113.667L83.6667 113.333M86 113L89 119L90 119L89 113L86 113z"/>
<path style="fill:#544698; stroke:none;" d="M89 113L88 114L89 117L92 115L91 119L98 117L102 118L102 117L99 117L102 115L102 114L98 116L97 113L94 117L93 117L93 113L89 113z"/>
<path style="fill:#8c9ab0; stroke:none;" d="M91 113L92 114L91 113M97 113L98 114L97 113M100 113L100 114L103 115L100 113M105 113L105 115L107 115L107 113L105 113z"/>
<path style="fill:#544698; stroke:none;" d="M111 113L110 114L111 119L112 119L113 115L114 115L114 119L117 118L115 122C120.575 122.814 120.945 118.686 121 114L115 117L115 113L111 113z"/>
<path style="fill:#8c9ab0; stroke:none;" d="M112.667 113.333L113.333 113.667L112.667 113.333M115 113L117 117L115 113M119 113L119 114L121 117L122 117L122 113L119 113z"/>
<path style="fill:#544698; stroke:none;" d="M126 113L125 114L126 119L127 119L129 114L126 113z"/>
<path style="fill:#8c9ab0; stroke:none;" d="M127 113L127 114L130 115L127 113z"/>
<path style="fill:#544698; stroke:none;" d="M132 113L130 119C134.394 118.73 137.554 118.611 139 114L132 117L132 116L132 113z"/>
<path style="fill:#8c9ab0; stroke:none;" d="M133 113L134 114L133 113M136 113L136 114L139 114L136 113M140 113L140 119L141 119L140 113z"/>
<path style="fill:#544698; stroke:none;" d="M141 113L141 119L149 119L150 113L146 117L145 114L144 114L143 117L142 117L141 113z"/>
<path style="fill:#8c9ab0; stroke:none;" d="M144 113L147 116L144 113M148 113L149 114L148 113z"/>
<path style="fill:#544698; stroke:none;" d="M152 113L151 118L151 119L154 118L154 113L152 113z"/>
<path style="fill:#8c9ab0; stroke:none;" d="M157 113L155 116L156 117L160 116L159 113L157 113z"/>
<path style="fill:#544698; stroke:none;" d="M160 113L159 114L159 118L159 119L162 118L162 113L160 113z"/>
<path style="fill:#8c9ab0; stroke:none;" d="M162 113L163 114L162 113z"/>
<path style="fill:#544698; stroke:none;" d="M167 113L169 119L167 113M172 113L170 118L171 119L173 119L174 113L172 113z"/>
<path style="fill:#8c9ab0; stroke:none;" d="M178 114L178 118L183 117L182 113L178 114z"/>
<path style="fill:#544698; stroke:none;" d="M180 113L181 114L180 113z"/>
<path style="fill:#8c9ab0; stroke:none;" d="M184 113L185 114L184 113z"/>
<path style="fill:#544698; stroke:none;" d="M185 113L183 117L180 116L178 118L178 119L185 119L185 113z"/>
<path style="fill:#8c9ab0; stroke:none;" d="M187 113L188 114L187 113M190.667 113.333L191.333 113.667L190.667 113.333M195 113L195 114L198 114L195 113M202 113L204 119L205 119L202 113M206 113L207 114L206 113z"/>
<path style="fill:#544698; stroke:none;" d="M207 113L205 119L208 118L207 113z"/>
<path style="fill:#8c9ab0; stroke:none;" d="M214 113L215 114L214 113M221 113L222 114L221 113z"/>
<path style="fill:#544698; stroke:none;" d="M226 113L225 114L226 119L229 118L227 115L230 118L233 115L234 115L234 119L238 118L236 116L239 115L239 119L240 119L244 115L246 121L243 122L243 123C246.036 122 246.494 121.137 246 118L248 114L247 114L246 117L245 117L245 113L231 116L230 113L226 113z"/>
<path style="fill:#8c9ab0; stroke:none;" d="M232.667 113.333L233.333 113.667L232.667 113.333M235 113L236 114L235 113M237 113L238 114L237 113M240 113L240 114L244 114L240 113M247 113L248 116L249 116L249 113L247 113z"/>
<path style="fill:#544698; stroke:none;" d="M73.6667 114.333L74.3333 114.667L73.6667 114.333z"/>
<path style="fill:#8c9ab0; stroke:none;" d="M109 114L109 116L111 116L109 114M117 114L118 115L117 114M135 114L136 115L135 114M150 114L151 115L150 114M153.667 114.333L154.333 114.667L153.667 114.333M161.333 114.667L161.667 115.333L161.333 114.667z"/>
<path style="fill:#544698; stroke:none;" d="M169 114L170 115L169 114z"/>
<path style="fill:#fdfcfd; stroke:none;" d="M170 114L168 117L170 114z"/>
<path style="fill:#8c9ab0; stroke:none;" d="M174 114L175 115L174 114z"/>
<path style="fill:#544698; stroke:none;" d="M179.333 114.667L179.667 115.333L179.333 114.667z"/>
<path style="fill:#8c9ab0; stroke:none;" d="M186 114L186 118L186 114M193 114L194 115L193 114M199 114L200 115L199 114M208 114L209 115L208 114M216 114L218 117L216 114M218 114L219 115L218 114z"/>
<path style="fill:#fdfcfd; stroke:none;" d="M224 114L226 117L224 114z"/>
<path style="fill:#8c9ab0; stroke:none;" d="M230 114L231 115L230 114M234 114L235 115L234 114M245 114L245 117L246 117L245 114z"/>
<path style="fill:#544698; stroke:none;" d="M72 115L72 119L79 119L72 115z"/>
<path style="fill:#fdfcfd; stroke:none;" d="M73 117L76 115L73 117M78.3333 115.667L78.6667 116.333L78.3333 115.667z"/>
<path style="fill:#8c9ab0; stroke:none;" d="M81 115L82 116L81 115M84 115L85 116L84 115z"/>
<path style="fill:#fdfcfd; stroke:none;" d="M87.3333 115.667L87.6667 116.333L87.3333 115.667z"/>
<path style="fill:#8c9ab0; stroke:none;" d="M91.3333 115.667L91.6667 116.333L91.3333 115.667M98 115L99 116L98 115M103 115L103 117L105 117L103 115M107 115L107 119L108 119L107 115M113 115L114 116L113 115M118 115L119 116L118 115z"/>
<path style="fill:#fdfcfd; stroke:none;" d="M119 115L120 116L119 115z"/>
<path style="fill:#8c9ab0; stroke:none;" d="M125 115L126 116L125 115M134.333 115.667L134.667 116.333L134.333 115.667z"/>
<path style="fill:#fdfcfd; stroke:none;" d="M136.333 115.667L136.667 116.333L136.333 115.667z"/>
<path style="fill:#8c9ab0; stroke:none;" d="M137 115L138 116L137 115M143 115L144 116L143 115z"/>
<path style="fill:#fdfcfd; stroke:none;" d="M145.333 115.667L145.667 116.333L145.333 115.667M149 117L152 117L151 115L149 117M157 115L159 118L160 117L159 115L157 115z"/>
<path style="fill:#8c9ab0; stroke:none;" d="M166 115L166 119L167 119L166 115M170 115L171 116L170 115z"/>
<path style="fill:#fdfcfd; stroke:none;" d="M172.333 115.667L172.667 116.333L172.333 115.667M181 115L182 116L181 115M186 115L185 117L187 117L186 115z"/>
<path style="fill:#8c9ab0; stroke:none;" d="M192.333 115.667L192.667 116.333L192.333 115.667M196 115L197 118L198 118L198 115L196 115z"/>
<path style="fill:#fdfcfd; stroke:none;" d="M199.333 115.667L199.667 116.333L199.333 115.667M202 115L202 117L204 117L204 115L202 115M214 115L215 116L214 115z"/>
<path style="fill:#8c9ab0; stroke:none;" d="M219 115L220 116L219 115M220 116L220 117L222 119L223 119L223 115L220 116M227.333 115.667L227.667 116.333L227.333 115.667M229 115L230 116L229 115M233 115L234 116L233 115M235 115L236 116L235 115M236 117L239 116L236 117M71.3333 116.667L71.6667 117.333L71.3333 116.667M80 116L81 117L80 116M83.3333 116.667L83.6667 117.333L83.3333 116.667M96 116L97 117L96 116z"/>
<path style="fill:#fdfcfd; stroke:none;" d="M97 116L98 117L97 116z"/>
<path style="fill:#8c9ab0; stroke:none;" d="M99 116L100 117L99 116z"/>
<path style="fill:#fdfcfd; stroke:none;" d="M109.667 116.333L110.333 116.667L109.667 116.333z"/>
<path style="fill:#8c9ab0; stroke:none;" d="M112.333 116.667L112.667 117.333L112.333 116.667z"/>
<path style="fill:#fdfcfd; stroke:none;" d="M118 116L119 117L118 116z"/>
<path style="fill:#8c9ab0; stroke:none;" d="M127.333 116.667L127.667 117.333L127.333 116.667M132 116L133 117L132 116z"/>
<path style="fill:#fdfcfd; stroke:none;" d="M133 116L134 117L133 116z"/>
<path style="fill:#8c9ab0; stroke:none;" d="M153 116L154 117L153 116z"/>
<path style="fill:#544698; stroke:none;" d="M155 116C155.513 118.475 155.604 118.575 158 118L155 116z"/>
<path style="fill:#8c9ab0; stroke:none;" d="M171 116L172 117L171 116M174 116L175 117L174 116M201 116L202 117L201 116M213.667 116.333L214.333 116.667L213.667 116.333z"/>
<path style="fill:#fdfcfd; stroke:none;" d="M221 116L222 117L221 116M233 116L234 117L233 116M237 116L239 118L239 116L237 116z"/>
<path style="fill:#8c9ab0; stroke:none;" d="M240.333 116.667L240.667 117.333L240.333 116.667M73 117L74 118L73 117z"/>
<path style="fill:#544698; stroke:none;" d="M88.3333 117.667L88.6667 118.333L88.3333 117.667z"/>
<path style="fill:#8c9ab0; stroke:none;" d="M98.3333 117.667L98.6667 118.333L98.3333 117.667M100 117L101 118L100 117z"/>
<path style="fill:#544698; stroke:none;" d="M103 119L106 117L103 119z"/>
<path style="fill:#8c9ab0; stroke:none;" d="M110 117L111 118L110 117M136 118L138 123L139 123L139 117L136 118M148 117L149 118L148 117M149 118L149 119L153 118L149 118M159.667 117.333L160.333 117.667L159.667 117.333M169 117L170 118L169 117M172 117L173 118L172 117z"/>
<path style="fill:#fdfcfd; stroke:none;" d="M179 117L180 118L179 117z"/>
<path style="fill:#8c9ab0; stroke:none;" d="M184 117L185 118L184 117M206 117L207 118L206 117M208 117L209 118L208 117M219 117L220 118L219 117M225 117L226 118L225 117M233 117L234 118L233 117M235 117L236 118L235 117M76 118L77 119L76 118M81 118L82 119L81 118M101 118L102 119L101 118M105 118L106 119L105 118M109 118L110 119L109 118M115.667 118.333L116.333 118.667L115.667 118.333M119 118L119 121L120 121L119 118M142.667 118.333L143.333 118.667L142.667 118.333M145.667 118.333L146.333 118.667L145.667 118.333M153 118L154 119L153 118M157.667 118.333L158.333 118.667L157.667 118.333M161 118L162 119L161 118M170 118L171 119L170 118M182 118L183 119L182 118M185 118L186 119L185 118M188 118L189 119L188 118M200 118L201 119L200 118M207 118L208 119L207 118M214 118L215 119L214 118M224 118L225 119L224 118M230.667 118.333L231.333 118.667L230.667 118.333M238 118L239 119L238 118M246 118L248 120L248 118L246 118M85 119L86 120L85 119M117 119L116 121L117 119z"/>
<path style="fill:#fdfcfd; stroke:none;" d="M118 119L117 122L118 119z"/>
<path style="fill:#544698; stroke:none;" d="M137 119L137 123L138 123L137 119z"/>
<path style="fill:#8c9ab0; stroke:none;" d="M120 121L121 122L120 121M115 122L116 123L115 122M119 122L120 123L119 122M242 122L243 123L242 122M116.667 123.333L117.333 123.667L116.667 123.333M243 123L244 124L243 123M126 132L127 132L130 126C126.14 125.133 126.1 128.939 126 132M134 125L134 126L137 127L134 125M141.667 125.333L142.333 125.667L141.667 125.333M144 126L144 127L148 126L144 126M149 132L150 132L153 126C148.871 125.108 148.168 128.643 149 132M154 126L154 127L158 126L154 126M158 127L158 128L162 130L162 129L162 128L159 128L165 128L168 126L168 132C173.106 124.86 162.316 124.793 158 127M171 125L171 126L174 127L174 131L175 131L171 125M176 125L179 127L176 125M180 125L180 126L188 126L188 125L180 125M191 125L192 131L193 131L191 125z"/>
<path style="fill:#d23c31; stroke:none;" d="M127 126L127 132L128 132L129 129L130 132L131 132L131 126L127 126z"/>
<path style="fill:#8c9ab0; stroke:none;" d="M132 126L133 127L132 126z"/>
<path style="fill:#d23c31; stroke:none;" d="M136 132L136 131L133 130L133 128L136 127C131.403 125.965 132.363 130.791 136 132M141 126L139 130L143 132L144 131L143 126L141 126M145 126L145 127L147 128L145 128L147 129L147 131L145 131L145 132C148.403 131.271 147.987 129.194 148 126L145 126M150 126L150 131L150 132C156.469 132 149.983 127.754 153 127L150 126M155 126L155 127L155 132L156 132L159 126L155 126M161 127L162 127L160 131L160 132L164 130L169 131L168 126L167 126C166.347 127.96 166 128.554 166 126L165 126L165 130L161 127M170 126L170 132L174 131L174 129L172 126L170 126M175 126L175 132L179 131L179 129L177 126L175 126M180 126L180 132L184 132L184 131L181 131L183 128L181 128L181 127L183 127L180 126M185 126L185 127L187 128L185 128L187 129L187 131L185 131L185 132C188.403 131.271 187.987 129.194 188 126L185 126M190 126L190 132L194 132L194 131L190 126z"/>
<path style="fill:#fdfcfd; stroke:none;" d="M128 127L129 128L128 127z"/>
<path style="fill:#8c9ab0; stroke:none;" d="M129 127L130 128L129 127z"/>
<path style="fill:#fdfcfd; stroke:none;" d="M161 127L162 128L161 127M166 127L167 128L166 127M171 127L171 128L174 128L171 127M181 127L181 128L184 128L184 129L182 131L187 131L187 128L181 127z"/>
<path style="fill:#8c9ab0; stroke:none;" d="M188 127L189 128L188 127M133.333 128.667L133.667 129.333L133.333 128.667M139 128L140 129L139 128z"/>
<path style="fill:#fdfcfd; stroke:none;" d="M141 128L142 129L141 128M148 128L149 129L148 128z"/>
<path style="fill:#8c9ab0; stroke:none;" d="M156 128L157 129L156 128z"/>
<path style="fill:#fdfcfd; stroke:none;" d="M164 128L165 129L164 128M168 128L169 129L168 128z"/>
<path style="fill:#8c9ab0; stroke:none;" d="M178 128L179 129L178 128M183 128L184 129L183 128M128 129L129 130L128 129M130 129L131 130L130 129M141 129L142 130L141 129M143 129L144 130L143 129M146 129L147 130L146 129z"/>
<path style="fill:#fdfcfd; stroke:none;" d="M149 129L149 131L152 131L152 129L149 129z"/>
<path style="fill:#8c9ab0; stroke:none;" d="M153.333 129.667L153.667 130.333L153.333 129.667M157 129L158 130L157 129M164 129L165 130L164 129M166 129L167 130L166 129z"/>
<path style="fill:#fdfcfd; stroke:none;" d="M171.333 129.667L171.667 130.333L171.333 129.667M176.333 129.667L176.667 130.333L176.333 129.667z"/>
<path style="fill:#8c9ab0; stroke:none;" d="M181.333 129.667L181.667 130.333L181.333 129.667M186 129L187 130L186 129M188.333 129.667L188.667 130.333L188.333 129.667M129 130L130 131L129 130M136.333 130.667L136.667 131.333L136.333 130.667M139 130L140 131L139 130M155 130L156 131L155 130M163 130L164 131L163 130z"/>
<path style="fill:#fdfcfd; stroke:none;" d="M166 130L167 131L166 130z"/>
<path style="fill:#8c9ab0; stroke:none;" d="M131 131L132 132L131 131M144 131L145 132L144 131M156 131L157 132L156 131M159 131L160 132L159 131M164 131L165 132L164 131M184 131L185 132L184 131z"/>
</svg>
